<mxfile host="65bd71144e">
    <diagram name="Seite-1" id="pfVD5uPkt_0VkU0PfUAH">
        <mxGraphModel dx="1389" dy="1630" grid="1" gridSize="10" guides="1" tooltips="1" connect="1" arrows="1" fold="1" page="1" pageScale="1" pageWidth="827" pageHeight="1169" math="0" shadow="0">
            <root>
                <mxCell id="0"/>
                <mxCell id="1" parent="0"/>
                <mxCell id="vjRrQJcUQjZJ_JsM72Ig-8" value="" style="rounded=1;whiteSpace=wrap;html=1;" parent="1" vertex="1">
                    <mxGeometry x="520" y="70" width="550.93" height="640" as="geometry"/>
                </mxCell>
                <mxCell id="vjRrQJcUQjZJ_JsM72Ig-4" value="" style="rounded=1;whiteSpace=wrap;html=1;" parent="1" vertex="1">
                    <mxGeometry x="-70.93" y="70" width="550.93" height="290" as="geometry"/>
                </mxCell>
                <mxCell id="vjRrQJcUQjZJ_JsM72Ig-13" style="edgeStyle=orthogonalEdgeStyle;rounded=0;orthogonalLoop=1;jettySize=auto;html=1;strokeWidth=4;jumpStyle=none;startArrow=classic;startFill=1;" parent="1" source="vjRrQJcUQjZJ_JsM72Ig-1" edge="1">
                    <mxGeometry relative="1" as="geometry">
                        <mxPoint x="320" y="230" as="targetPoint"/>
                    </mxGeometry>
                </mxCell>
                <mxCell id="vjRrQJcUQjZJ_JsM72Ig-43" style="edgeStyle=orthogonalEdgeStyle;rounded=0;orthogonalLoop=1;jettySize=auto;html=1;strokeWidth=4;" parent="1" source="vjRrQJcUQjZJ_JsM72Ig-1" target="vjRrQJcUQjZJ_JsM72Ig-41" edge="1">
                    <mxGeometry relative="1" as="geometry">
                        <Array as="points">
                            <mxPoint x="94" y="-200"/>
                            <mxPoint x="478" y="-200"/>
                        </Array>
                    </mxGeometry>
                </mxCell>
                <mxCell id="vjRrQJcUQjZJ_JsM72Ig-1" value="" style="shape=image;verticalLabelPosition=bottom;labelBackgroundColor=default;verticalAlign=top;aspect=fixed;imageAspect=0;image=https://d2t1xqejof9utc.cloudfront.net/screenshots/pics/e45f8a7136c4973fc6185e9be3f788f4/large.png;" parent="1" vertex="1">
                    <mxGeometry x="-30" y="160" width="248.14" height="140" as="geometry"/>
                </mxCell>
                <mxCell id="vjRrQJcUQjZJ_JsM72Ig-19" style="edgeStyle=orthogonalEdgeStyle;rounded=0;orthogonalLoop=1;jettySize=auto;html=1;exitX=0.413;exitY=-0.05;exitDx=0;exitDy=0;strokeWidth=4;exitPerimeter=0;" parent="1" source="vjRrQJcUQjZJ_JsM72Ig-3" target="vjRrQJcUQjZJ_JsM72Ig-17" edge="1">
                    <mxGeometry relative="1" as="geometry">
                        <Array as="points">
                            <mxPoint x="373" y="50"/>
                            <mxPoint x="478" y="50"/>
                        </Array>
                    </mxGeometry>
                </mxCell>
                <mxCell id="vjRrQJcUQjZJ_JsM72Ig-3" value="" style="image;html=1;image=img/lib/clip_art/networking/Wireless_Router_N_128x128.png" parent="1" vertex="1">
                    <mxGeometry x="340" y="190" width="80" height="80" as="geometry"/>
                </mxCell>
                <mxCell id="vjRrQJcUQjZJ_JsM72Ig-7" value="&lt;b&gt;Raspberry Pi (192.168.191.134)&lt;/b&gt;" style="text;html=1;align=center;verticalAlign=middle;whiteSpace=wrap;rounded=0;" parent="1" vertex="1">
                    <mxGeometry x="-15.930000000000007" y="300" width="220" height="30" as="geometry"/>
                </mxCell>
                <mxCell id="vjRrQJcUQjZJ_JsM72Ig-10" value="&lt;font style=&quot;font-size: 36px;&quot;&gt;Home&lt;/font&gt;" style="text;html=1;align=center;verticalAlign=middle;whiteSpace=wrap;rounded=0;" parent="1" vertex="1">
                    <mxGeometry x="139.54" y="90" width="130" height="30" as="geometry"/>
                </mxCell>
                <mxCell id="vjRrQJcUQjZJ_JsM72Ig-11" value="&lt;font style=&quot;font-size: 36px;&quot;&gt;Other location&lt;/font&gt;" style="text;html=1;align=center;verticalAlign=middle;whiteSpace=wrap;rounded=0;" parent="1" vertex="1">
                    <mxGeometry x="665.82" y="90" width="259.3" height="30" as="geometry"/>
                </mxCell>
                <mxCell id="vjRrQJcUQjZJ_JsM72Ig-15" value="" style="sketch=0;pointerEvents=1;shadow=0;dashed=0;html=1;strokeColor=none;fillColor=#434445;aspect=fixed;labelPosition=center;verticalLabelPosition=bottom;verticalAlign=top;align=center;outlineConnect=0;shape=mxgraph.vvd.ethernet_port;" parent="1" vertex="1">
                    <mxGeometry x="240" y="160" width="50" height="50" as="geometry"/>
                </mxCell>
                <mxCell id="vjRrQJcUQjZJ_JsM72Ig-16" value="&lt;font style=&quot;font-size: 14px;&quot;&gt;Ethernet&lt;br&gt;(or Wifi)&lt;br&gt;&lt;/font&gt;" style="text;html=1;align=center;verticalAlign=middle;whiteSpace=wrap;rounded=0;" parent="1" vertex="1">
                    <mxGeometry x="235" y="240" width="60" height="30" as="geometry"/>
                </mxCell>
                <mxCell id="vjRrQJcUQjZJ_JsM72Ig-17" value="" style="ellipse;shape=cloud;whiteSpace=wrap;html=1;" parent="1" vertex="1">
                    <mxGeometry x="330" y="-180" width="296" height="180" as="geometry"/>
                </mxCell>
                <mxCell id="vjRrQJcUQjZJ_JsM72Ig-18" value="&lt;font style=&quot;font-size: 24px;&quot;&gt;Internet&lt;/font&gt;" style="text;html=1;align=center;verticalAlign=middle;whiteSpace=wrap;rounded=0;" parent="1" vertex="1">
                    <mxGeometry x="448" y="-100" width="60" height="30" as="geometry"/>
                </mxCell>
                <mxCell id="vjRrQJcUQjZJ_JsM72Ig-27" style="edgeStyle=orthogonalEdgeStyle;rounded=0;orthogonalLoop=1;jettySize=auto;html=1;strokeWidth=4;jumpStyle=none;startArrow=classic;startFill=1;" parent="1" edge="1">
                    <mxGeometry relative="1" as="geometry">
                        <mxPoint x="801.8600000000001" y="230" as="targetPoint"/>
                        <mxPoint x="699.9999999999999" y="230" as="sourcePoint"/>
                    </mxGeometry>
                </mxCell>
                <mxCell id="vjRrQJcUQjZJ_JsM72Ig-28" value="" style="shape=image;verticalLabelPosition=bottom;labelBackgroundColor=default;verticalAlign=top;aspect=fixed;imageAspect=0;image=https://d2t1xqejof9utc.cloudfront.net/screenshots/pics/e45f8a7136c4973fc6185e9be3f788f4/large.png;" parent="1" vertex="1">
                    <mxGeometry x="817.03" y="145" width="248.14" height="140" as="geometry"/>
                </mxCell>
                <mxCell id="vjRrQJcUQjZJ_JsM72Ig-39" style="edgeStyle=orthogonalEdgeStyle;rounded=0;orthogonalLoop=1;jettySize=auto;html=1;strokeWidth=4;" parent="1" target="vjRrQJcUQjZJ_JsM72Ig-17" edge="1">
                    <mxGeometry relative="1" as="geometry">
                        <mxPoint x="590" y="180" as="sourcePoint"/>
                        <Array as="points">
                            <mxPoint x="590" y="50"/>
                            <mxPoint x="478" y="50"/>
                        </Array>
                    </mxGeometry>
                </mxCell>
                <mxCell id="vjRrQJcUQjZJ_JsM72Ig-29" value="" style="image;html=1;image=img/lib/clip_art/networking/Wireless_Router_N_128x128.png" parent="1" vertex="1">
                    <mxGeometry x="570" y="190" width="80" height="80" as="geometry"/>
                </mxCell>
                <mxCell id="vjRrQJcUQjZJ_JsM72Ig-35" style="edgeStyle=orthogonalEdgeStyle;rounded=0;orthogonalLoop=1;jettySize=auto;html=1;exitX=0.5;exitY=1;exitDx=0;exitDy=0;strokeWidth=4;" parent="1" source="vjRrQJcUQjZJ_JsM72Ig-30" target="vjRrQJcUQjZJ_JsM72Ig-34" edge="1">
                    <mxGeometry relative="1" as="geometry"/>
                </mxCell>
                <mxCell id="vjRrQJcUQjZJ_JsM72Ig-30" value="&lt;b&gt;Raspberry Pi (192.168.191.99)&lt;/b&gt;" style="text;html=1;align=center;verticalAlign=middle;whiteSpace=wrap;rounded=0;" parent="1" vertex="1">
                    <mxGeometry x="840" y="285" width="220" height="30" as="geometry"/>
                </mxCell>
                <mxCell id="vjRrQJcUQjZJ_JsM72Ig-31" value="" style="sketch=0;pointerEvents=1;shadow=0;dashed=0;html=1;strokeColor=none;fillColor=#434445;aspect=fixed;labelPosition=center;verticalLabelPosition=bottom;verticalAlign=top;align=center;outlineConnect=0;shape=mxgraph.vvd.ethernet_port;" parent="1" vertex="1">
                    <mxGeometry x="721.86" y="160" width="50" height="50" as="geometry"/>
                </mxCell>
                <mxCell id="vjRrQJcUQjZJ_JsM72Ig-32" value="&lt;font style=&quot;font-size: 14px;&quot;&gt;Ethernet&lt;/font&gt;" style="text;html=1;align=center;verticalAlign=middle;whiteSpace=wrap;rounded=0;" parent="1" vertex="1">
                    <mxGeometry x="716.86" y="240" width="60" height="30" as="geometry"/>
                </mxCell>
                <mxCell id="vjRrQJcUQjZJ_JsM72Ig-33" value="devices" style="sketch=0;outlineConnect=0;gradientColor=none;fontColor=#545B64;strokeColor=none;fillColor=#879196;dashed=0;verticalLabelPosition=bottom;verticalAlign=top;align=center;html=1;fontSize=12;fontStyle=0;aspect=fixed;shape=mxgraph.aws4.illustration_devices;pointerEvents=1" parent="1" vertex="1">
                    <mxGeometry x="708.2199999999999" y="530" width="191.78" height="140" as="geometry"/>
                </mxCell>
                <mxCell id="vjRrQJcUQjZJ_JsM72Ig-36" style="edgeStyle=orthogonalEdgeStyle;rounded=0;orthogonalLoop=1;jettySize=auto;html=1;strokeWidth=4;" parent="1" target="vjRrQJcUQjZJ_JsM72Ig-33" edge="1">
                    <mxGeometry relative="1" as="geometry">
                        <mxPoint x="804" y="460" as="sourcePoint"/>
                    </mxGeometry>
                </mxCell>
                <mxCell id="vjRrQJcUQjZJ_JsM72Ig-34" value="" style="sketch=0;pointerEvents=1;shadow=0;dashed=0;html=1;strokeColor=none;fillColor=#434445;aspect=fixed;labelPosition=center;verticalLabelPosition=bottom;verticalAlign=top;align=center;outlineConnect=0;shape=mxgraph.vvd.wi_fi;" parent="1" vertex="1">
                    <mxGeometry x="778.1399999999999" y="400" width="50" height="50" as="geometry"/>
                </mxCell>
                <mxCell id="vjRrQJcUQjZJ_JsM72Ig-37" value="Wifi access point" style="text;html=1;align=center;verticalAlign=middle;whiteSpace=wrap;rounded=0;" parent="1" vertex="1">
                    <mxGeometry x="817.0300000000001" y="360" width="115.93" height="30" as="geometry"/>
                </mxCell>
                <mxCell id="vjRrQJcUQjZJ_JsM72Ig-38" value="connect to Wifi" style="text;html=1;align=center;verticalAlign=middle;whiteSpace=wrap;rounded=0;" parent="1" vertex="1">
                    <mxGeometry x="809.19" y="480" width="115.93" height="30" as="geometry"/>
                </mxCell>
                <mxCell id="vjRrQJcUQjZJ_JsM72Ig-41" value="" style="ellipse;shape=cloud;whiteSpace=wrap;html=1;" parent="1" vertex="1">
                    <mxGeometry x="330" y="-430" width="296" height="180" as="geometry"/>
                </mxCell>
                <mxCell id="vjRrQJcUQjZJ_JsM72Ig-42" value="&lt;font style=&quot;font-size: 24px;&quot;&gt;Zerotier Network&lt;/font&gt;" style="text;html=1;align=center;verticalAlign=middle;whiteSpace=wrap;rounded=0;" parent="1" vertex="1">
                    <mxGeometry x="402" y="-372.5" width="152" height="65" as="geometry"/>
                </mxCell>
                <mxCell id="vjRrQJcUQjZJ_JsM72Ig-44" style="edgeStyle=orthogonalEdgeStyle;rounded=0;orthogonalLoop=1;jettySize=auto;html=1;exitX=0.5;exitY=0;exitDx=0;exitDy=0;strokeWidth=4;" parent="1" source="vjRrQJcUQjZJ_JsM72Ig-28" edge="1">
                    <mxGeometry relative="1" as="geometry">
                        <mxPoint x="104" y="170" as="sourcePoint"/>
                        <mxPoint x="480" y="-250" as="targetPoint"/>
                        <Array as="points">
                            <mxPoint x="940" y="-200"/>
                            <mxPoint x="488" y="-200"/>
                        </Array>
                    </mxGeometry>
                </mxCell>
            </root>
        </mxGraphModel>
    </diagram>
</mxfile>
